<svg height="448pt" viewBox="-24 0 448 448.02699" width="448pt" xmlns="http://www.w3.org/2000/svg"><path d="m356.8125 310.046875c-2.09375-.917969-4.222656-1.71875-6.398438-2.398437-.914062-.304688-1.855468-.535157-2.785156-.800782-1.214844-.351562-2.398437-.695312-3.664062-.976562-1.261719-.277344-2.328125-.472656-3.496094-.679688-1.039062-.183594-2.078125-.351562-3.128906-.488281-1.238282-.160156-2.488282-.289063-3.734375-.382813-1.03125-.082031-2.078125-.128906-3.121094-.160156-1.246094 0-2.496094-.089844-3.742187-.0625-1.082032 0-2.136719.09375-3.199219.160156-1.183594.070313-2.402344.117188-3.554688.246094-33.433593 3.78125-59.808593 30.1875-63.550781 63.625-.113281 1.054688-.152344 2.117188-.214844 3.199219-.082031 1.183594-.160156 2.398437-.183594 3.566406-.027343 1.167969 0 2.402344.0625 3.539063.0625 1.132812.089844 2.222656.167969 3.328125.078125 1.101562.222657 2.398437.382813 3.605469.136718 1.082031.3125 2.144531.496094 3.199218.183593 1.058594.417968 2.304688.671874 3.441406.257813 1.136719.625 2.449219.96875 3.65625.265626.9375.503907 1.871094.800782 2.792969.710937 2.144531 1.496094 4.261719 2.398437 6.34375 12.890625 29.566407 43.867188 46.953125 75.820313 42.554688 31.949218-4.398438 57.078125-29.507813 61.5-61.457031 4.425781-31.949219-12.941406-62.9375-42.496094-75.851563zm19.199219 73.953125h-40v40c0 4.417969-3.578125 8-8 8-4.417969 0-8-3.582031-8-8v-40h-40c-4.417969 0-8-3.582031-8-8s3.582031-8 8-8h40v-40c0-4.417969 3.582031-8 8-8 4.421875 0 8 3.582031 8 8v40h40c4.421875 0 8 3.582031 8 8s-3.578125 8-8 8zm0 0"/><path d="m240.011719 375.449219c.03125-3.710938.300781-7.414063.800781-11.089844.128906-1 .289062-1.984375.457031-2.984375.449219-2.695312 1.03125-5.34375 1.71875-7.949219.242188-.921875.34375-1.867187.609375-2.785156 8.386719-28.371094 30.566406-50.566406 58.929688-58.976563.941406-.273437 1.902344-.375 2.847656-.625 2.582031-.679687 5.199219-1.253906 7.871094-1.710937 1.023437-.167969 2.039062-.335937 3.0625-.464844 3.640625-.492187 7.304687-.761719 10.976562-.800781h.160156l.566407-.0625c3.710937.035156 7.414062.304688 11.089843.800781.726563.09375 1.441407.230469 2.160157.34375 3.105469.472657 6.179687 1.109375 9.214843 1.910157.503907.136718 1.03125.183593 1.535157.320312v-283.375c0-4.417969-3.578125-8-8-8h-240v72c0 13.253906-10.742188 24-24 24h-80.0000002v296c0 4.417969 3.5820312 8 8.0000002 8h235.347656c-.144531-.519531-.195313-1.0625-.328125-1.601562-.800781-2.996094-1.433594-6.035157-1.898438-9.101563-.121093-.753906-.253906-1.488281-.351562-2.242187-.484375-3.664063-.742188-7.355469-.769531-11.054688 0-.167969 0-.328125 0-.496094zm-120-231.449219h176c4.421875 0 8 3.582031 8 8s-3.578125 8-8 8h-176c-4.417969 0-8-3.582031-8-8s3.582031-8 8-8zm-64 0h32c4.421875 0 8 3.582031 8 8s-3.578125 8-8 8h-32c-4.417969 0-8-3.582031-8-8s3.582031-8 8-8zm0 48h240c4.421875 0 8 3.582031 8 8s-3.578125 8-8 8h-240c-4.417969 0-8-3.582031-8-8s3.582031-8 8-8zm0 48h240c4.421875 0 8 3.582031 8 8s-3.578125 8-8 8h-240c-4.417969 0-8-3.582031-8-8s3.582031-8 8-8zm168 112h-168c-4.417969 0-8-3.582031-8-8s3.582031-8 8-8h168c4.421875 0 8 3.582031 8 8s-3.578125 8-8 8zm-168-48c-4.417969 0-8-3.582031-8-8s3.582031-8 8-8h200c4.421875 0 8 3.582031 8 8s-3.578125 8-8 8zm0 0"/><path d="m88.011719 72v-61.726562l-75.535157 69.726562h67.535157c4.421875 0 8-3.582031 8-8zm0 0"/></svg>