<svg height="480pt" viewBox="-31 0 479 480" width="480pt" xmlns="http://www.w3.org/2000/svg"><path d="m344.5 72h64l-64-64zm0 0" fill="#9bc9ff"/><path d="m8.5 248h400v176h-400zm0 0" fill="#9bc9ff"/><g fill="#57a4ff"><path d="m416.429688 72c.015624-2.109375-.800782-4.144531-2.273438-5.65625l-64-64c-1.507812-1.480469-3.542969-2.296875-5.65625-2.2734375v-.0703125h-304c-22.082031.0273438-39.972656 17.917969-40 40v400c.027344 22.082031 17.917969 39.972656 40 40h336c22.082031-.027344 39.972656-17.917969 40-40zm-63.929688-44.6875 36.6875 36.6875h-36.6875zm-312-11.3125h296v56c0 4.417969 3.582031 8 8 8h56v160h-384v-200c0-13.253906 10.746094-24 24-24zm360 400h-384v-160h384zm-24 48h-336c-13.253906 0-24-10.746094-24-24v-8h384v8c0 13.253906-10.746094 24-24 24zm0 0"/><path d="m200.738281 401.9375c.894531 3.558594 4.09375 6.054688 7.761719 6.054688s6.867188-2.496094 7.761719-6.054688l32-128c.765625-2.800781-.042969-5.796875-2.113281-7.828125-2.074219-2.03125-5.082032-2.785156-7.867188-1.960937-2.785156.820312-4.902344 3.085937-5.542969 5.914062l-24.238281 96.953125-24.238281-96.953125c-.640625-2.828125-2.757813-5.09375-5.542969-5.914062-2.785156-.824219-5.792969-.070313-7.867188 1.960937-2.070312 2.03125-2.878906 5.027344-2.113281 7.828125zm0 0"/><path d="m80.5 408c4.417969 0 8-3.582031 8-8v-56h48v56c0 4.417969 3.582031 8 8 8s8-3.582031 8-8v-112c0-13.253906-10.746094-24-24-24h-32c-13.253906 0-24 10.746094-24 24v112c0 4.417969 3.582031 8 8 8zm8-120c0-4.417969 3.582031-8 8-8h32c4.417969 0 8 3.582031 8 8v40h-48zm0 0"/><path d="m272.5 392c-4.417969 0-8 3.582031-8 8s3.582031 8 8 8h64c4.417969 0 8-3.582031 8-8s-3.582031-8-8-8h-24v-112h24c4.417969 0 8-3.582031 8-8s-3.582031-8-8-8h-64c-4.417969 0-8 3.582031-8 8s3.582031 8 8 8h24v112zm0 0"/></g></svg>