<svg height="448pt" viewBox="-48 0 448 448" width="448pt" xmlns="http://www.w3.org/2000/svg"><path d="m0 440c0 4.417969 3.582031 8 8 8h336c4.417969 0 8-3.582031 8-8v-432c0-4.417969-3.582031-8-8-8h-240v72c0 13.253906-10.746094 24-24 24h-80zm245.230469-270.566406c-3.03125-3.140625-2.988281-8.128906.097656-11.214844s8.078125-3.128906 11.214844-.097656l62.226562 62.222656c3.121094 3.125 3.121094 8.1875 0 11.3125l-62.226562 62.222656c-3.136719 3.03125-8.128907 2.988282-11.214844-.097656s-3.128906-8.074219-.097656-11.214844l56.570312-56.566406zm-124.160157 133.703125 96-166.273438c1.421876-2.496093 4.066407-4.039062 6.9375-4.046875 2.871094-.003906 5.527344 1.527344 6.957032 4.015625 1.429687 2.492188 1.414062 5.554688-.035156 8.03125l-96 166.273438c-1.421876 2.496093-4.066407 4.039062-6.9375 4.046875-2.871094.003906-5.527344-1.527344-6.957032-4.015625-1.429687-2.492188-1.414062-5.554688.035156-8.03125zm-87.839843-82.792969 62.226562-62.222656c3.136719-3.03125 8.128907-2.988282 11.214844.097656s3.128906 8.074219.097656 11.214844l-56.570312 56.566406 56.570312 56.566406c2.078125 2.011719 2.914063 4.984375 2.179688 7.78125-.730469 2.796875-2.917969 4.980469-5.714844 5.714844-2.796875.730469-5.769531-.101562-7.777344-2.183594l-62.226562-62.222656c-3.121094-3.125-3.121094-8.1875 0-11.3125zm0 0"/><path d="m88 72v-61.726562l-75.535156 69.726562h67.535156c4.417969 0 8-3.582031 8-8zm0 0"/></svg>