<svg height="448pt" viewBox="-24 0 448 448" width="448pt" xmlns="http://www.w3.org/2000/svg"><path d="m400 304v-144c0-4.417969-3.582031-8-8-8h-304c-4.417969 0-8 3.582031-8 8v144c0 4.417969 3.582031 8 8 8h304c4.417969 0 8-3.582031 8-8zm-280-32h32c4.417969 0 8-3.582031 8-8s3.582031-8 8-8 8 3.582031 8 8c0 13.253906-10.746094 24-24 24h-32c-13.253906 0-24-10.746094-24-24v-64c0-13.253906 10.746094-24 24-24h32c13.253906 0 24 10.746094 24 24 0 4.417969-3.582031 8-8 8s-8-3.582031-8-8-3.582031-8-8-8h-32c-4.417969 0-8 3.582031-8 8v64c0 4.417969 3.582031 8 8 8zm152-8c0 13.253906-10.746094 24-24 24h-32c-13.113281-.046875-23.78125-10.574219-24-23.6875-.058594-4.425781 3.449219-8.078125 7.871094-8.199219h.128906c4.339844-.054687 7.914062 3.402344 8 7.742188-.035156 4.457031 3.542969 8.101562 8 8.144531h32c4.417969 0 8-3.582031 8-8v-16c0-4.417969-3.582031-8-8-8h-32c-13.253906 0-24-10.746094-24-24v-16c0-13.253906 10.746094-24 24-24h32.40625c6.355469.003906 12.441406 2.566406 16.882812 7.113281 4.441407 4.546875 6.859376 10.691407 6.710938 17.046875-.042969 4.417969-3.660156 7.964844-8.078125 7.917969-4.421875-.042969-7.964844-3.660156-7.921875-8.078125.097656-2.121094-.683594-4.1875-2.160156-5.710938-1.425782-1.46875-3.386719-2.292968-5.433594-2.289062h-32.40625c-4.417969 0-8 3.582031-8 8v16c0 4.417969 3.582031 8 8 8h32c13.253906 0 24 10.746094 24 24zm111.382812-76.921875-40 96c-1.242187 2.980469-4.152343 4.921875-7.382812 4.921875s-6.140625-1.941406-7.382812-4.921875l-40-96c-1.703126-4.078125.226562-8.761719 4.304687-10.460937 4.078125-1.703126 8.761719.226562 10.460937 4.304687l32.617188 78.277344 32.617188-78.277344c1.699218-4.078125 6.382812-6.007813 10.460937-4.304687 4.078125 1.699218 6.007813 6.382812 4.304687 10.460937zm0 0"/><path d="m88 72v-61.726562l-75.535156 69.726562h67.535156c4.417969 0 8-3.582031 8-8zm0 0"/><path d="m0 440c0 4.417969 3.582031 8 8 8h336c4.417969 0 8-3.582031 8-8v-112h-264c-13.253906 0-24-10.746094-24-24v-144c0-13.253906 10.746094-24 24-24h264v-128c0-4.417969-3.582031-8-8-8h-240v72c0 13.253906-10.746094 24-24 24h-80zm0 0"/></svg>