<svg height="480pt" viewBox="-31 0 479 480" width="480pt" xmlns="http://www.w3.org/2000/svg"><path d="m344.5 72h64l-64-64zm0 0" fill="#9bc9ff"/><path d="m8.5 248h400v176h-400zm0 0" fill="#9bc9ff"/><path d="m144.5 368v-64c0-17.671875-22.328125-32-40-32h-24v128h32c17.671875 0 32-14.328125 32-32zm0 0" fill="#9bc9ff"/><g fill="#57a4ff"><path d="m80.5 408h32c22.082031-.027344 39.972656-17.917969 40-40v-64c0-22.519531-25.808594-40-48-40h-24c-4.417969 0-8 3.582031-8 8v128c0 4.417969 3.582031 8 8 8zm8-128h16c13.976562 0 32 11.640625 32 24v64c0 13.253906-10.746094 24-24 24h-24zm0 0"/><path d="m416.429688 72c.015624-2.109375-.800782-4.144531-2.273438-5.65625l-64-64c-1.503906-1.484375-3.542969-2.3085938-5.65625-2.28125v-.0625h-304c-22.082031.0273438-39.972656 17.917969-40 40v400c.027344 22.082031 17.917969 39.972656 40 40h336c22.082031-.027344 39.972656-17.917969 40-40zm-63.929688-44.6875 36.6875 36.6875h-36.6875zm-312-11.3125h296v56c0 4.417969 3.582031 8 8 8h56v160h-384v-200c0-13.253906 10.746094-24 24-24zm360 400h-384v-160h384zm-24 48h-336c-13.253906 0-24-10.746094-24-24v-8h384v8c0 13.253906-10.746094 24-24 24zm0 0"/><path d="m288.5 408h32c13.253906 0 24-10.746094 24-24v-48c0-4.417969-3.582031-8-8-8h-32c-4.417969 0-8 3.582031-8 8s3.582031 8 8 8h24v40c0 4.417969-3.582031 8-8 8h-32c-4.417969 0-8-3.582031-8-8v-96c0-4.417969 3.582031-8 8-8h32c4.417969 0 8 3.582031 8 8v16c0 4.417969 3.582031 8 8 8s8-3.582031 8-8v-16c0-13.253906-10.746094-24-24-24h-32c-13.253906 0-24 10.746094-24 24v96c0 13.253906 10.746094 24 24 24zm0 0"/><path d="m176.5 408c4.417969 0 8-3.582031 8-8v-94.113281l16.839844 33.6875c1.503906 2.523437 4.222656 4.070312 7.160156 4.070312s5.65625-1.546875 7.160156-4.070312l16.839844-33.6875v94.113281c0 4.417969 3.582031 8 8 8s8-3.582031 8-8v-128c.042969-3.746094-2.519531-7.019531-6.167969-7.878906-3.644531-.855469-7.398437.929687-9.03125 4.304687l-24.800781 49.6875-24.800781-49.6875c-1.632813-3.375-5.386719-5.160156-9.03125-4.304687-3.648438.859375-6.210938 4.132812-6.167969 7.878906v128c0 4.417969 3.582031 8 8 8zm0 0"/></g></svg>