<svg height="448pt" viewBox="-32 0 448 448" width="448pt" xmlns="http://www.w3.org/2000/svg"><path d="m48 264h-16v112h24c13.253906 0 24-10.746094 24-24v-64c0-12.359375-18.023438-24-32-24zm0 0"/><path d="m128 264h32c4.417969 0 8 3.582031 8 8v96c0 4.417969-3.582031 8-8 8h-32c-4.417969 0-8-3.582031-8-8v-96c0-4.417969 3.582031-8 8-8zm0 0"/><path d="m384 416h-384v8c0 13.253906 10.746094 24 24 24h336c13.253906 0 24-10.746094 24-24zm0 0"/><path d="m336 48h36.6875l-36.6875-36.6875zm0 0"/><path d="m384 64h-56c-4.417969 0-8-3.582031-8-8v-56h-296c-13.253906 0-24 10.746094-24 24v200h384zm0 0"/><path d="m384 240h-384v160h384zm-288 112c-.027344 22.082031-17.917969 39.972656-40 40h-32c-4.417969 0-8-3.582031-8-8v-128c0-4.417969 3.582031-8 8-8h24c22.191406 0 48 17.472656 48 40zm88 16c0 13.253906-10.746094 24-24 24h-32c-13.253906 0-24-10.746094-24-24v-96c0-13.253906 10.746094-24 24-24h32c13.253906 0 24 10.746094 24 24zm56 8h32c4.417969 0 8 3.582031 8 8s-3.582031 8-8 8h-32c-22.082031-.027344-39.972656-17.917969-40-40v-64c.027344-22.082031 17.917969-39.972656 40-40h32c4.417969 0 8 3.582031 8 8s-3.582031 8-8 8h-32c-13.253906 0-24 10.746094-24 24v64c0 13.253906 10.746094 24 24 24zm127.199219 4.425781c1.976562 3.953125.371093 8.757813-3.582031 10.734375-3.957032 1.976563-8.761719.371094-10.738282-3.585937l-24.878906-49.6875-24.800781 49.6875c-1.972657 3.957031-6.78125 5.5625-10.734375 3.585937-3.957032-1.976562-5.558594-6.78125-3.585938-10.734375l30.175782-60.425781-30.214844-60.425781c-1.976563-3.953125-.371094-8.757813 3.585937-10.734375 3.953125-1.976563 8.757813-.371094 10.734375 3.585937l24.839844 49.6875 24.800781-49.6875c1.972657-3.957031 6.78125-5.5625 10.734375-3.585937 3.957032 1.976562 5.558594 6.78125 3.585938 10.734375l-30.175782 60.425781zm0 0"/></svg>