<svg height="448pt" viewBox="-22 0 448 448" width="448pt" xmlns="http://www.w3.org/2000/svg"><path d="m138.863281 398.105469 44.449219-6.34375-4-8-12.496094-24.945313-32.921875-16.417968-6.34375 44.417968 5.648438-5.648437c3.140625-3.03125 8.128906-2.988281 11.214843.097656 3.085938 3.085937 3.128907 8.074219.097657 11.214844zm0 0"/><path d="m0 440c0 4.417969 3.582031 8 8 8h336c4.417969 0 8-3.582031 8-8v-187.199219l-150.902344 150.933594c-.253906.230469-.523437.445313-.800781.640625-.152344.121094-.289063.25-.449219.351562-.34375.21875-.707031.410157-1.078125.570313-.160156.070313-.3125.160156-.480469.222656-.429687.15625-.871093.273438-1.320312.351563-.136719 0-.25.136718-.394531.160156l-79.199219 11.3125c-.375.054688-.753906.082031-1.136719.082031-2.320312 0-4.523437-1.007812-6.042969-2.761719-1.519531-1.753906-2.203124-4.078124-1.875-6.375l11.199219-78.65625.074219-.503906c0-.058594.046875-.089844.054688-.136718.1875-1.148438.625-2.238282 1.28125-3.199219.0625-.097657.140624-.167969.207031-.265625.210937-.308594.445312-.605469.695312-.886719l203.6875-203.71875c6.753907-6.757813 15.121094-11.675781 24.304688-14.296875.742187-.199219 1.472656-.394531 2.175781-.5625v-98.0625c0-4.417969-3.582031-8-8-8h-240v72c0 13.253906-10.746094 24-24 24h-80zm112-296h152c4.417969 0 8 3.582031 8 8s-3.582031 8-8 8h-152c-4.417969 0-8-3.582031-8-8s3.582031-8 8-8zm-64 0h32c4.417969 0 8 3.582031 8 8s-3.582031 8-8 8h-32c-4.417969 0-8-3.582031-8-8s3.582031-8 8-8zm0 48h168c4.417969 0 8 3.582031 8 8s-3.582031 8-8 8h-168c-4.417969 0-8-3.582031-8-8s3.582031-8 8-8zm0 48h120c4.417969 0 8 3.582031 8 8s-3.582031 8-8 8h-120c-4.417969 0-8-3.582031-8-8s3.582031-8 8-8zm0 48h72c4.417969 0 8 3.582031 8 8s-3.582031 8-8 8h-72c-4.417969 0-8-3.582031-8-8s3.582031-8 8-8zm0 0"/><path d="m88 72v-61.726562l-75.535156 69.726562h67.535156c4.417969 0 8-3.582031 8-8zm0 0"/><path d="m308.597656 160.523438 11.300782-11.300782 56.539062 56.539063-11.300781 11.304687zm0 0"/><path d="m393.382812 188.800781c12-11.988281 15.136719-30.238281 7.824219-45.542969-7.3125-15.300781-23.480469-24.332031-40.34375-22.53125-2.289062.222657-4.550781.65625-6.757812 1.289063-6.519531 1.875-12.457031 5.375-17.25 10.175781l-5.597657 5.679688 56.542969 56.554687zm0 0"/><path d="m197.601562 384.574219 156.207032-156.175781-56.535156-56.597657-156.21875 156.199219 30.144531 15.121094 97.769531-97.746094c2.007812-2.078125 4.980469-2.914062 7.78125-2.179688 2.796875.730469 4.980469 2.914063 5.710938 5.710938.734374 2.796875-.101563 5.773438-2.179688 7.78125l-97.746094 97.710938 7.480469 14.953124zm94-161.832031 11.308594-11.308594c3.140625-3.035156 8.128906-2.988282 11.214844.097656s3.128906 8.074219.097656 11.210938l-11.3125 11.3125c-2.007812 2.082031-4.980468 2.914062-7.777344 2.183593-2.796874-.734375-4.980468-2.917969-5.714843-5.714843-.730469-2.796876.101562-5.769532 2.183593-7.78125zm0 0"/></svg>