<svg height="448pt" viewBox="-24 0 448 448" width="448pt" xmlns="http://www.w3.org/2000/svg"><path d="m400 304v-144c0-4.417969-3.582031-8-8-8h-304c-4.417969 0-8 3.582031-8 8v144c0 4.417969 3.582031 8 8 8h304c4.417969 0 8-3.582031 8-8zm-240-80c4.417969 0 8 3.582031 8 8s-3.582031 8-8 8h-40v32h56c4.417969 0 8 3.582031 8 8s-3.582031 8-8 8h-64c-4.417969 0-8-3.582031-8-8v-96c0-4.417969 3.582031-8 8-8h64c4.417969 0 8 3.582031 8 8s-3.582031 8-8 8h-56v32zm120-8c0 13.253906-10.746094 24-24 24h-40v40c0 4.417969-3.582031 8-8 8s-8-3.582031-8-8v-96c0-4.417969 3.582031-8 8-8h48c13.253906 0 24 10.746094 24 24zm96 48c0 13.253906-10.746094 24-24 24h-32c-13.113281-.046875-23.78125-10.574219-24-23.6875-.058594-4.425781 3.449219-8.078125 7.871094-8.199219h.128906c4.339844-.054687 7.914062 3.402344 8 7.742188-.035156 4.457031 3.542969 8.101562 8 8.144531h32c4.417969 0 8-3.582031 8-8v-16c0-4.417969-3.582031-8-8-8h-32c-13.253906 0-24-10.746094-24-24v-16c0-13.253906 10.746094-24 24-24h32.40625c6.355469.003906 12.441406 2.566406 16.882812 7.113281 4.441407 4.546875 6.859376 10.691407 6.710938 17.046875-.25 4.320313-3.769531 7.730469-8.097656 7.839844-4.378906-.050781-7.902344-3.617188-7.902344-8 .097656-2.121094-.683594-4.1875-2.160156-5.710938-1.425782-1.46875-3.386719-2.292968-5.433594-2.289062h-32.40625c-4.417969 0-8 3.582031-8 8v16c0 4.417969 3.582031 8 8 8h32c13.253906 0 24 10.746094 24 24zm0 0"/><path d="m88 72v-61.726562l-75.535156 69.726562h67.535156c4.417969 0 8-3.582031 8-8zm0 0"/><path d="m0 440c0 4.417969 3.582031 8 8 8h336c4.417969 0 8-3.582031 8-8v-112h-264c-13.253906 0-24-10.746094-24-24v-144c0-13.253906 10.746094-24 24-24h264v-128c0-4.417969-3.582031-8-8-8h-240v72c0 13.253906-10.746094 24-24 24h-80zm0 0"/><path d="m256 192h-40v32h40c4.417969 0 8-3.582031 8-8v-16c0-4.417969-3.582031-8-8-8zm0 0"/></svg>