<svg height="473pt" viewBox="-5 0 473 473.13892" width="473pt" xmlns="http://www.w3.org/2000/svg"><path d="m191.117188 220.488281 40.917968 121.199219 115.402344-174.183594 19.125 58.503906 9.738281 29.761719c28.230469-32.960937 52.425781-69.175781 72.070313-107.875l14.402344-81.878906c1.550781-8.703125-4.253907-17.015625-12.960938-18.558594l-196.136719-34.570312h-.078125l-71.601562-12.640625c-8.703125-1.546875-17.015625 4.253906-18.558594 12.960937l-2.800781 16.082031-44.558594 252.71875-6.867187 38.9375c25.539062-31.050781 63.082031-77.175781 76.722656-94.007812 2.863281-3.5625 4.765625-5.90625 5.183594-6.449219zm0 0" fill="#46f8ff"/><path d="m106.957031 425.671875c-8.707031-1.53125-14.519531-9.832031-12.984375-18.535156l22.070313-125.167969-16.285157-20.28125c-.9375 3.480469-33.601562 100-45.433593 133.273438l7.351562 41.6875c3.128907 17.382812 19.722657 28.96875 37.121094 25.917968l108.542969-19.199218zm0 0" fill="#5eac24"/><path d="m160.636719 29.289062-44.558594 252.71875-16.320313-20.320312c-.960937 3.519531-33.601562 100-45.441406 133.28125l-53.761718-304.960938c-3.074219-17.429687 8.570312-34.050781 26-37.121093zm0 0" fill="#bdfdff"/><path d="m251.027344 69.273438c-17.402344-3.070313-34 8.554687-37.066406 25.957031-3.066407 17.40625 8.554687 34 25.957031 37.070312 17.40625 3.066407 34-8.554687 37.070312-25.957031 3.070313-17.40625-8.554687-34.003906-25.960937-37.070312zm0 0" fill="#ff3051"/><path d="m115.4375 162.167969c17.410156-3.050781 29.046875-19.636719 25.996094-37.046875-3.054688-17.410156-19.640625-29.046875-37.050782-25.992188-17.410156 3.054688-29.042968 19.648438-25.988281 37.054688 3.058594 17.402344 19.640625 29.035156 37.042969 25.984375zm0 0" fill="#ff6243"/><path d="m347.4375 167.527344-115.359375 174.152344 8.796875 26.097656c18.546875-10.625 36.421875-22.382813 53.519531-35.210938 30-22.558594 57.464844-48.308594 81.90625-76.796875l-9.738281-29.761719zm0 0" fill="#5eac24"/><path d="m294.394531 332.566406c-17.09375 12.824219-34.964843 24.578125-53.511719 35.203125l29.265626 86.671875 104.671874 18.453125c8.703126 1.535157 17.003907-4.277343 18.535157-12.984375l17.417969-98.742187-34.472657-105.398438c-24.441406 28.488281-51.90625 54.238281-81.90625 76.796875zm0 0" fill="#529720"/><path d="m232.078125 341.679688-40.960937-121.183594c.214843-.238282-1.730469 2.175781-5.183594 6.398437-13.671875 16.90625-51.199219 63.058594-76.738282 94.113281v-.105468l-.046874.066406-15.199219 86.128906c-1.125 6.429688 1.773437 12.898438 7.320312 16.34375 48.925781-11.902344 95.925781-30.644531 139.613281-55.671875zm0 0" fill="#4e901e"/><path d="m101.292969 423.480469c1.730469 1.085937 3.652343 1.828125 5.664062 2.191406l100.382813 17.695313 44 7.769531 18.792968 3.3125-29.25-86.679688c-43.679687 25.039063-90.671874 43.796875-139.589843 55.710938zm0 0" fill="#447e1a"/><path d="m410.796875 361.207031 37.597656-213.320312c-19.648437 38.703125-43.851562 74.917969-72.09375 107.882812zm0 0" fill="#3dd9df"/><g fill="#46f8ff"><path d="m232.070312 341.65625.007813.023438 115.359375-174.152344 19.125 58.480468-19.125-58.503906zm0 0"/><path d="m185.933594 226.96875c-13.640625 16.800781-51.199219 62.960938-76.722656 94.007812v.101563c25.488281-31.085937 63.050781-77.238281 76.722656-94.109375zm0 0"/><path d="m191.148438 220.457031-.03125.039063 40.960937 121.191406v-.007812l-.007813-.023438zm0 0"/></g></svg>