<svg height="448pt" viewBox="-32 0 448 448" width="448pt" xmlns="http://www.w3.org/2000/svg"><path d="m384 416h-384v8c0 13.253906 10.746094 24 24 24h336c13.253906 0 24-10.746094 24-24zm0 0"/><path d="m384 240h-384v160h384zm-288 144c0 4.417969-3.582031 8-8 8s-8-3.582031-8-8v-56h-48v56c0 4.417969-3.582031 8-8 8s-8-3.582031-8-8v-128c0-4.417969 3.582031-8 8-8s8 3.582031 8 8v56h48v-56c0-4.417969 3.582031-8 8-8s8 3.582031 8 8zm80-120h-24v120c0 4.417969-3.582031 8-8 8s-8-3.582031-8-8v-120h-24c-4.417969 0-8-3.582031-8-8s3.582031-8 8-8h64c4.417969 0 8 3.582031 8 8s-3.582031 8-8 8zm104 120c0 4.417969-3.582031 8-8 8s-8-3.582031-8-8v-94.113281l-16.800781 33.6875c-1.503907 2.523437-4.222657 4.070312-7.160157 4.070312-2.933593 0-5.65625-1.546875-7.160156-4.070312l-16.878906-33.6875v94.113281c0 4.417969-3.582031 8-8 8s-8-3.582031-8-8v-128c-.042969-3.746094 2.519531-7.019531 6.167969-7.878906 3.644531-.855469 7.398437.929687 9.03125 4.304687l24.800781 49.6875 24.800781-49.6875c1.632813-3.375 5.386719-5.160156 9.03125-4.304687 3.648438.859375 6.210938 4.132812 6.167969 7.878906zm80 8h-64c-4.417969 0-8-3.582031-8-8v-128c0-4.417969 3.582031-8 8-8s8 3.582031 8 8v120h56c4.417969 0 8 3.582031 8 8s-3.582031 8-8 8zm0 0"/><path d="m336 48h36.6875l-36.6875-36.6875zm0 0"/><path d="m384 64h-56c-4.417969 0-8-3.582031-8-8v-56h-296c-13.253906 0-24 10.746094-24 24v200h384zm0 0"/></svg>