<?xml version="1.0" ?><!DOCTYPE svg  PUBLIC '-//W3C//DTD SVG 1.1//EN'  'http://www.w3.org/Graphics/SVG/1.1/DTD/svg11.dtd'><svg enable-background="new 0 0 512 512" height="512px" id="Layer_1" version="1.1" viewBox="0 0 512 512" width="512px" xml:space="preserve" xmlns="http://www.w3.org/2000/svg" xmlns:xlink="http://www.w3.org/1999/xlink"><path d="M511.999,432c0,44.182-35.816,80-80,80H80c-44.183,0-80-35.818-80-80V80C0,35.817,35.817,0,80,0h351.999  c44.184,0,80,35.817,80,80V432z" fill="#231F20"/><path d="M511.999,432V307.344l-90.994-90.994l-34.068,34.068l30.547,30.546l-179.392-10.25l-42.195,13.777  l-68.142-68.142l-34.068,34.068l21.336,21.335l-24.023,24.023L307.221,512h124.778C476.183,512,511.999,476.182,511.999,432z" fill="#0F0D0E"/><polygon fill="#FFFFFF" points="420.999,295.648 90.999,295.648 90.999,216.352 127.749,216.352 127.749,258.885 384.242,258.885   384.242,216.352 420.999,216.352 "/></svg>