<svg width="512" height="512" xmlns="http://www.w3.org/2000/svg">

 <g>
  <title>background</title>
  <rect fill="none" id="canvas_background" height="402" width="582" y="-1" x="-1"/>
 </g>
 <g>
  <title>Layer 1</title>
  <path id="svg_1" fill="#005fbf" d="m512.002,432c0,44.182 -35.816,80 -80,80l-352.002,0c-44.183,0 -80,-35.818 -80,-80l0,-352c0,-44.183 35.817,-80 80,-80l352.002,0c44.184,0 80,35.817 80,80l0,352z"/>
  <path id="svg_2" fill="#003f7f" d="m512.002,432l0,-181.643l-113.922,-113.059l-11.434,5.246l-219.296,-5.246l-51.414,9.443l0,203.557l-5.756,20.848l141.748,140.854l180.074,0c44.184,0 80,-35.818 80,-80z"/>
  <path id="svg_3" fill="#FFFFFF" d="m370.466,127.227l-228.93,0c-23.704,0 -42.924,19.219 -42.924,42.924l0,171.699c0,23.703 19.22,42.924 42.924,42.924l228.93,0c23.705,0 42.925,-19.221 42.925,-42.924l0,-171.699c0,-23.705 -19.22,-42.924 -42.925,-42.924zm0,28.616c1.642,0 3.193,0.332 4.66,0.84l-119.125,95.299l-119.126,-95.299c1.47,-0.508 3.02,-0.84 4.661,-0.84l228.93,0zm0,200.315l-228.93,0c-7.905,0 -14.308,-6.404 -14.308,-14.309l0,-156.234l119.833,95.865c2.611,2.092 5.778,3.137 8.939,3.137s6.331,-1.045 8.939,-3.137l119.834,-95.865l0,156.235c0.001,7.904 -6.402,14.308 -14.307,14.308z"/>
 </g>
</svg>