<svg width="512" height="512" xmlns="http://www.w3.org/2000/svg">

 <g>
  <title>background</title>
  <rect fill="none" id="canvas_background" height="402" width="582" y="-1" x="-1"/>
 </g>
 <g>
  <title>Layer 1</title>
  <path id="svg_1" fill="#bf005f" d="m511.999,432c0,44.183 -35.816,80 -80,80l-351.999,0c-44.183,0 -80,-35.817 -80,-80l0,-352c0,-44.183 35.817,-80 80,-80l351.999,0c44.184,0 80,35.817 80,80l0,352z"/>
  <path id="svg_2" fill="#7f003f" d="m511.999,432l0,-148.664l-110.291,-110.29l-70.545,70.546l-52.122,-52.123l-64.044,64.045l-48.782,-48.781l-42.607,42.607l0,0l-16.265,16.265l34.974,34.975l-14.817,16.596l-37.187,37.418l157.406,157.406l184.28,0c44.184,0 80,-35.818 80,-80z"/>
  <path id="svg_4" fill="#FFFFFF" d="m364.439,259.671c28.414,0 51.46,-22.957 51.46,-51.275c0,-28.313 -23.046,-51.278 -51.46,-51.278c-28.435,0 -51.479,22.965 -51.479,51.278c0,28.318 23.045,51.275 51.479,51.275z"/>
  <path id="svg_5" fill="#FFFFFF" d="m368.99,271.572c-0.374,-0.039 -0.768,-0.069 -1.146,-0.095c-0.298,-0.03 -0.596,-0.035 -0.904,-0.061c-0.817,-0.036 -1.636,-0.056 -2.454,-0.056l-0.03,0l-0.056,0c-0.839,0 -1.661,0.02 -2.476,0.056c-0.308,0.025 -0.61,0.03 -0.904,0.061c-0.372,0.025 -0.767,0.056 -1.141,0.095c-29.105,2.507 -52.01,28.446 -52.01,58.057l0,25.04l113.131,0l0,-25.04c0,-29.61 -22.904,-55.55 -52.01,-58.057z"/>
  <path id="svg_6" fill="#FFFFFF" d="m245.202,269.17c25.575,0 46.323,-20.668 46.323,-46.147c0,-25.495 -20.748,-46.158 -46.323,-46.158c-25.59,0 -46.328,20.663 -46.328,46.158c0,25.478 20.738,46.147 46.328,46.147z"/>
  <path id="svg_7" fill="#FFFFFF" d="m249.293,279.877c-0.333,-0.021 -0.686,-0.062 -1.02,-0.092c-0.277,-0.015 -0.551,-0.021 -0.818,-0.045c-0.738,-0.03 -1.47,-0.056 -2.212,-0.056l-0.05,0l-0.041,0c-0.742,0 -1.474,0.025 -2.216,0.056c-0.264,0.024 -0.536,0.03 -0.814,0.045c-0.338,0.03 -0.687,0.071 -1.025,0.092c-26.192,2.257 -46.813,25.6 -46.813,52.242l0,22.546l101.822,0.004l0,-22.55c-0.001,-26.642 -20.611,-49.985 -46.813,-52.242z"/>
  <path id="svg_8" fill="#FFFFFF" d="m136.818,277.716c23.025,0 41.692,-18.586 41.692,-41.521c0,-22.95 -18.667,-41.54 -41.692,-41.54c-23.03,0 -41.691,18.59 -41.691,41.54c0,22.935 18.661,41.521 41.691,41.521z"/>
  <path id="svg_9" fill="#FFFFFF" d="m140.511,287.356c-0.313,-0.03 -0.621,-0.066 -0.93,-0.071c-0.242,-0.015 -0.484,-0.04 -0.732,-0.04c-0.666,-0.05 -1.323,-0.055 -1.99,-0.055l-0.025,0l-0.05,0c-0.682,0 -1.344,0.005 -2.005,0.055c-0.243,0 -0.474,0.025 -0.732,0.04c-0.298,0.005 -0.611,0.041 -0.919,0.071c-23.577,2.031 -42.128,23.046 -42.128,47.021l0,20.292l91.632,0l0,-20.292c0,-23.975 -18.541,-44.99 -42.121,-47.021z"/>
 </g>
</svg>