<svg height="448pt" viewBox="-48 0 448 448" width="448pt" xmlns="http://www.w3.org/2000/svg"><path d="m216 199.550781-81.863281 136.449219h163.726562zm0 0"/><path d="m80 200c0 4.417969-3.582031 8-8 8s-8-3.582031-8-8 3.582031-8 8-8 8 3.582031 8 8zm0 0"/><path d="m88 72v-61.726562l-75.535156 69.726562h67.535156c4.417969 0 8-3.582031 8-8zm0 0"/><path d="m133.273438 306.328125-29.273438-43.902344-49.054688 73.574219h60.527344zm0 0"/><path d="m0 440c0 4.417969 3.582031 8 8 8h336c4.417969 0 8-3.582031 8-8v-432c0-4.417969-3.582031-8-8-8h-240v72c0 13.253906-10.746094 24-24 24h-80zm72-264c13.253906 0 24 10.746094 24 24s-10.746094 24-24 24-24-10.746094-24-24 10.746094-24 24-24zm-48 160h11.71875l61.601562-92.441406c1.570313-2.097656 4.035157-3.332032 6.65625-3.332032 2.621094 0 5.085938 1.234376 6.65625 3.332032l31.765626 47.59375 66.761718-111.273438c1.550782-2.261718 4.113282-3.613281 6.855469-3.613281s5.304687 1.351563 6.855469 3.613281l93.65625 156.121094h11.472656c4.417969 0 8 3.582031 8 8s-3.582031 8-8 8h-304c-4.417969 0-8-3.582031-8-8s3.582031-8 8-8zm0 0"/></svg>