<?xml version="1.0" encoding="iso-8859-1"?>
<!-- Generator: Adobe Illustrator 21.0.0, SVG Export Plug-In . SVG Version: 6.00 Build 0)  -->
<svg version="1.1" id="Capa_1" xmlns="http://www.w3.org/2000/svg" xmlns:xlink="http://www.w3.org/1999/xlink" x="0px" y="0px"
	 viewBox="0 0 1080 1080" style="enable-background:new 0 0 1080 1080;" xml:space="preserve">
<g>
	<g id="File-JPEG">
		
			<linearGradient id="SVGID_1_" gradientUnits="userSpaceOnUse" x1="540" y1="1108.006" x2="540" y2="-92.54" gradientTransform="matrix(1 0 0 -1 0 1078)">
			<stop  offset="0" style="stop-color:#FFF33B"/>
			<stop  offset="0.014" style="stop-color:#FEE72E"/>
			<stop  offset="0.042" style="stop-color:#FED51B"/>
			<stop  offset="0.07" style="stop-color:#FDCA10"/>
			<stop  offset="0.1" style="stop-color:#FDC70C"/>
			<stop  offset="0.4" style="stop-color:#F3903F"/>
			<stop  offset="0.8" style="stop-color:#ED683C"/>
			<stop  offset="1" style="stop-color:#E93E3A"/>
		</linearGradient>
		<path style="fill:url(#SVGID_1_);" d="M1007.838,162c0.06-4.754-1.78-9.335-5.112-12.726l-144-144
			C855.333,1.947,850.752,0.113,846,0.18V0H162c-49.681,0.06-89.94,40.319-90,90v900c0.06,49.681,40.319,89.94,90,90h756
			c49.681-0.06,89.94-40.319,90-90L1007.838,162z M864,61.452L946.548,144H864V61.452z M162,36h666v126c0,9.941,8.059,18,18,18h126
			v360H108V90C108,60.177,132.177,36,162,36z M972,936H108V576h864V936z M918,1044H162c-29.823,0-54-24.177-54-54v-18h864v18
			C972,1019.823,947.823,1044,918,1044z"/>
		
			<linearGradient id="SVGID_2_" gradientUnits="userSpaceOnUse" x1="432" y1="1108.006" x2="432" y2="-92.54" gradientTransform="matrix(1 0 0 -1 0 1078)">
			<stop  offset="0" style="stop-color:#FFF33B"/>
			<stop  offset="0.014" style="stop-color:#FEE72E"/>
			<stop  offset="0.042" style="stop-color:#FED51B"/>
			<stop  offset="0.07" style="stop-color:#FDCA10"/>
			<stop  offset="0.1" style="stop-color:#FDC70C"/>
			<stop  offset="0.4" style="stop-color:#F3903F"/>
			<stop  offset="0.8" style="stop-color:#ED683C"/>
			<stop  offset="1" style="stop-color:#E93E3A"/>
		</linearGradient>
		<path style="fill:url(#SVGID_2_);" d="M360,918c9.941,0,18-8.059,18-18V774h90c29.823,0,54-24.177,54-54v-72
			c0-29.823-24.177-54-54-54H360c-9.941,0-18,8.059-18,18v288C342,909.941,350.059,918,360,918z M378,630h90c9.941,0,18,8.059,18,18
			v72c0,9.941-8.059,18-18,18h-90V630z"/>
		
			<linearGradient id="SVGID_3_" gradientUnits="userSpaceOnUse" x1="846" y1="1108.006" x2="846" y2="-92.54" gradientTransform="matrix(1 0 0 -1 0 1078)">
			<stop  offset="0" style="stop-color:#FFF33B"/>
			<stop  offset="0.014" style="stop-color:#FEE72E"/>
			<stop  offset="0.042" style="stop-color:#FED51B"/>
			<stop  offset="0.07" style="stop-color:#FDCA10"/>
			<stop  offset="0.1" style="stop-color:#FDC70C"/>
			<stop  offset="0.4" style="stop-color:#F3903F"/>
			<stop  offset="0.8" style="stop-color:#ED683C"/>
			<stop  offset="1" style="stop-color:#E93E3A"/>
		</linearGradient>
		<path style="fill:url(#SVGID_3_);" d="M810,918h72c29.823,0,54-24.177,54-54V756c0-9.941-8.059-18-18-18h-72
			c-9.941,0-18,8.059-18,18s8.059,18,18,18h54v90c0,9.941-8.059,18-18,18h-72c-9.941,0-18-8.059-18-18V648c0-9.941,8.059-18,18-18
			h72c9.941,0,18,8.059,18,18v36c0,9.941,8.059,18,18,18s18-8.059,18-18v-36c0-29.823-24.177-54-54-54h-72
			c-29.823,0-54,24.177-54,54v216C756,893.823,780.177,918,810,918z"/>
		
			<linearGradient id="SVGID_4_" gradientUnits="userSpaceOnUse" x1="234" y1="1108.006" x2="234" y2="-92.54" gradientTransform="matrix(1 0 0 -1 0 1078)">
			<stop  offset="0" style="stop-color:#FFF33B"/>
			<stop  offset="0.014" style="stop-color:#FEE72E"/>
			<stop  offset="0.042" style="stop-color:#FED51B"/>
			<stop  offset="0.07" style="stop-color:#FDCA10"/>
			<stop  offset="0.1" style="stop-color:#FDC70C"/>
			<stop  offset="0.4" style="stop-color:#F3903F"/>
			<stop  offset="0.8" style="stop-color:#ED683C"/>
			<stop  offset="1" style="stop-color:#E93E3A"/>
		</linearGradient>
		<path style="fill:url(#SVGID_4_);" d="M234,918c49.681-0.06,89.94-40.319,90-90V612c0-9.941-8.059-18-18-18s-18,8.059-18,18v216
			c0,29.823-24.177,54-54,54s-54-24.177-54-54c0-9.941-8.059-18-18-18s-18,8.059-18,18C144.06,877.681,184.319,917.94,234,918z"/>
		
			<linearGradient id="SVGID_5_" gradientUnits="userSpaceOnUse" x1="648" y1="1108.006" x2="648" y2="-92.54" gradientTransform="matrix(1 0 0 -1 0 1078)">
			<stop  offset="0" style="stop-color:#FFF33B"/>
			<stop  offset="0.014" style="stop-color:#FEE72E"/>
			<stop  offset="0.042" style="stop-color:#FED51B"/>
			<stop  offset="0.07" style="stop-color:#FDCA10"/>
			<stop  offset="0.1" style="stop-color:#FDC70C"/>
			<stop  offset="0.4" style="stop-color:#F3903F"/>
			<stop  offset="0.8" style="stop-color:#ED683C"/>
			<stop  offset="1" style="stop-color:#E93E3A"/>
		</linearGradient>
		<path style="fill:url(#SVGID_5_);" d="M576,918h144c9.941,0,18-8.059,18-18s-8.059-18-18-18H594V774h126c9.941,0,18-8.059,18-18
			s-8.059-18-18-18H594V630h126c9.941,0,18-8.059,18-18s-8.059-18-18-18H576c-9.941,0-18,8.059-18,18v288
			C558,909.941,566.059,918,576,918z"/>
	</g>
</g>
<g>
</g>
<g>
</g>
<g>
</g>
<g>
</g>
<g>
</g>
<g>
</g>
<g>
</g>
<g>
</g>
<g>
</g>
<g>
</g>
<g>
</g>
<g>
</g>
<g>
</g>
<g>
</g>
<g>
</g>
</svg>
