<svg height="448pt" viewBox="-32 0 448 448" width="448pt" xmlns="http://www.w3.org/2000/svg"><path d="m384 416h-384v8c0 13.253906 10.746094 24 24 24h336c13.253906 0 24-10.746094 24-24zm0 0"/><path d="m384 240h-384v160h384zm-200 112c0 22.089844-17.910156 40-40 40s-40-17.910156-40-40c0-4.417969 3.582031-8 8-8s8 3.582031 8 8c0 13.253906 10.746094 24 24 24s24-10.746094 24-24v-96c0-4.417969 3.582031-8 8-8s8 3.582031 8 8zm40-40h32c13.253906 0 24 10.746094 24 24v32c0 13.253906-10.746094 24-24 24h-48c-4.417969 0-8-3.582031-8-8s3.582031-8 8-8h48c4.417969 0 8-3.582031 8-8v-32c0-4.417969-3.582031-8-8-8h-32c-13.253906 0-24-10.746094-24-24v-32c0-13.253906 10.746094-24 24-24h48c4.417969 0 8 3.582031 8 8s-3.582031 8-8 8h-48c-4.417969 0-8 3.582031-8 8v32c0 4.417969 3.582031 8 8 8zm0 0"/><path d="m336 48h36.6875l-36.6875-36.6875zm0 0"/><path d="m384 64h-56c-4.417969 0-8-3.582031-8-8v-56h-296c-13.253906 0-24 10.746094-24 24v200h384zm0 0"/></svg>