<svg width="24" height="24" xmlns="http://www.w3.org/2000/svg">
 <defs>
  <linearGradient y2="0" x2="1" y1="0" x1="0" id="svg_8">
   <stop offset="0" stop-color="#2a5d93"/>
   <stop offset="1" stop-color="#d5a26c"/>
  </linearGradient>
 </defs>
 <g>
  <title>background</title>
  <rect fill="none" id="canvas_background" height="402" width="582" y="-1" x="-1"/>
 </g>
 <g>
  <title>Layer 1</title>
  <path id="svg_3" fill="#7c9bbc" d="m5,1.99998c-1.1046,0 -2,0.9 -2,2l0,8l0,4l0,6c0,1.1 0.8954,2 2,2l14,0c1.105,0 2,-0.9 2,-2l0,-6l0,-4l0,-4l-6,-6l-10,0z"/>
  <path id="svg_4" fill="#bdc3c7" d="m5.033482,1.033457c-1.1046,0 -2,0.9 -2,2l0,8l0,4l0,6c0,1.1 0.8954,2 2,2l14,0c1.105,0 2,-0.9 2,-2l0,-6l0,-4l0,-4l-6,-6l-10,0z"/>
  <path id="svg_5" fill="#7c9bbc" d="m21,6.999976l-6,-6l0,4c0,1.1 0.895,2 2,2l4,0z"/>
  <path id="svg_7" fill="url(#svg_8)" d="m9.3973,16.499976l-0.3906,0.4l-0.1797,0l-0.1797,0l-3.6406,-3.7c-0.0521,0 -0.0781,-0.1 -0.0781,-0.2c0,0 0.026,-0.1 0.0781,-0.1l3.6406,-3.7c0.0521,0 0.112,-0.1 0.1797,-0.1s0.1276,0.1 0.1797,0.1l0.3906,0.4c0.0521,0.1 0.0781,0.1 0.0781,0.2c0,0 -0.026,0.1 -0.0781,0.2l-3.0703,3l3.0703,3.1c0.0521,0.1 0.0781,0.1 0.0781,0.2c0,0 -0.026,0.1 -0.0781,0.2m4.6177,-8.4l-2.915,10.1c-0.02,0.1 -0.062,0.1 -0.125,0.2l-0.179,0l-0.485,-0.2c-0.067,0 -0.119,0 -0.156,-0.1c-0.031,0 -0.036,-0.1 -0.015,-0.2l2.914,-10c0.02,-0.1 0.059,-0.2 0.117,-0.2l0.187,0l0.485,0.1c0.067,0 0.117,0.1 0.148,0.1c0.037,0.1 0.044,0.2 0.024,0.2m5.132,5.1l-3.64,3.7l-0.18,0l-0.18,0l-0.39,-0.4c-0.052,-0.1 -0.078,-0.2 -0.078,-0.2c0,-0.1 0.026,-0.1 0.078,-0.2l3.07,-3.1l-3.07,-3c-0.052,-0.1 -0.078,-0.2 -0.078,-0.2c0,-0.1 0.026,-0.1 0.078,-0.2l0.39,-0.4c0.052,0 0.112,-0.1 0.18,-0.1s0.128,0.1 0.18,0.1l3.64,3.7c0.052,0 0.078,0.1 0.078,0.1c0,0.1 -0.026,0.2 -0.078,0.2"/>
 </g>
</svg>