<svg height="600pt" viewBox="-40 0 600 600" width="600pt" xmlns="http://www.w3.org/2000/svg"><path d="m519.914062 90c.027344-2.640625-.992187-5.1875-2.84375-7.070312l-80-80c-1.882812-1.851563-4.429687-2.8710942-7.070312-2.8437505v-.0859375h-380c-27.601562.0351562-49.9648438 22.398438-50 50v500c.0351562 27.601562 22.398438 49.964844 50 50h420c27.601562-.035156 49.964844-22.398438 50-50zm-79.914062-55.859375 45.859375 45.859375h-45.859375zm-390-14.140625h370v70c0 5.523438 4.476562 10 10 10h70v200h-480v-250c0-16.566406 13.433594-30 30-30zm450 500h-480v-200h480zm-30 60h-420c-16.566406 0-30-13.433594-30-30v-10h480v10c0 16.566406-13.433594 30-30 30zm0 0"/><path d="m370.296875 502.421875c1.117187 4.449219 5.117187 7.570313 9.703125 7.570313s8.585938-3.121094 9.703125-7.570313l40-160c1.191406-5.304687-2.066406-10.585937-7.339844-11.898437-5.269531-1.3125-10.625 1.816406-12.066406 7.054687l-30.296875 121.191406-30.296875-121.191406c-1.441406-5.238281-6.796875-8.367187-12.066406-7.054687-5.273438 1.3125-8.53125 6.59375-7.339844 11.898437zm0 0"/><path d="m240 510h40c16.566406 0 30-13.433594 30-30v-120c0-16.566406-13.433594-30-30-30h-40c-16.566406 0-30 13.433594-30 30v120c0 16.566406 13.433594 30 30 30zm-10-150c0-5.523438 4.476562-10 10-10h40c5.523438 0 10 4.476562 10 10v120c0 5.523438-4.476562 10-10 10h-40c-5.523438 0-10-4.476562-10-10zm0 0"/><path d="m100 510c5.523438 0 10-4.476562 10-10v-117.640625l21.050781 42.109375c1.878907 3.152344 5.277344 5.085938 8.949219 5.085938s7.070312-1.933594 8.949219-5.085938l21.050781-42.109375v117.640625c0 5.523438 4.476562 10 10 10s10-4.476562 10-10v-160c.003906-4.644531-3.1875-8.675781-7.703125-9.742188-4.519531-1.0625-9.175781 1.117188-11.246094 5.273438l-31.050781 62.109375-31-62.109375c-2.042969-4.21875-6.734375-6.449219-11.289062-5.378906-4.5625 1.074218-7.765626 5.164062-7.710938 9.847656v160c0 5.523438 4.476562 10 10 10zm0 0"/></svg>