<svg height="448pt" viewBox="-32 0 448 448" width="448pt" xmlns="http://www.w3.org/2000/svg"><path d="m336 48h36.6875l-36.6875-36.6875zm0 0"/><path d="m384 416h-384v8c0 13.253906 10.746094 24 24 24h336c13.253906 0 24-10.746094 24-24zm0 0"/><path d="m208 264h-40v48h40c4.417969 0 8-3.582031 8-8v-32c0-4.417969-3.582031-8-8-8zm0 0"/><path d="m384 64h-56c-4.417969 0-8-3.582031-8-8v-56h-296c-13.253906 0-24 10.746094-24 24v200h384zm0 0"/><path d="m384 240h-384v160h384zm-248 144c0 4.417969-3.582031 8-8 8s-8-3.582031-8-8v-94.113281l-16.800781 33.6875c-1.503907 2.523437-4.222657 4.070312-7.160157 4.070312-2.933593 0-5.65625-1.546875-7.160156-4.070312l-16.878906-33.6875v94.113281c0 4.417969-3.582031 8-8 8s-8-3.582031-8-8v-128c-.003906-3.714844 2.550781-6.941406 6.164062-7.792969 3.613282-.851562 7.339844.894531 8.996094 4.21875l24.839844 49.6875 24.839844-49.6875c1.65625-3.324219 5.382812-5.070312 8.996094-4.21875 3.613281.851563 6.167968 4.078125 6.164062 7.792969zm96-80c0 13.253906-10.746094 24-24 24h-40v56c0 4.417969-3.582031 8-8 8s-8-3.582031-8-8v-128c0-4.417969 3.582031-8 8-8h48c13.253906 0 24 10.746094 24 24zm96 0c-.019531 5.921875-2.246094 11.625-6.238281 16 3.992187 4.375 6.21875 10.078125 6.238281 16v32c0 13.253906-10.746094 24-24 24h-48c-4.417969 0-8-3.582031-8-8s3.582031-8 8-8h48c4.417969 0 8-3.582031 8-8v-32c0-4.417969-3.582031-8-8-8h-48c-4.417969 0-8-3.582031-8-8s3.582031-8 8-8h48c4.417969 0 8-3.582031 8-8v-32c0-4.417969-3.582031-8-8-8h-48c-4.417969 0-8-3.582031-8-8s3.582031-8 8-8h48c13.253906 0 24 10.746094 24 24zm0 0"/></svg>