<svg height="448pt" viewBox="-48 0 448 448" width="448pt" xmlns="http://www.w3.org/2000/svg"><path d="m256 264c0 8.835938-7.164062 16-16 16s-16-7.164062-16-16 7.164062-16 16-16 16 7.164062 16 16zm0 0"/><path d="m128 296c0 8.835938-7.164062 16-16 16s-16-7.164062-16-16 7.164062-16 16-16 16 7.164062 16 16zm0 0"/><path d="m0 440c0 4.417969 3.582031 8 8 8h336c4.417969 0 8-3.582031 8-8v-432c0-4.417969-3.582031-8-8-8h-240v72c0 13.253906-10.746094 24-24 24h-80zm112-176c5.632812.03125 11.15625 1.570312 16 4.449219v-100.449219c0-3.671875 2.5-6.871094 6.0625-7.761719l128-32c2.390625-.59375 4.921875-.058593 6.863281 1.457031 1.9375 1.515626 3.074219 3.84375 3.074219 6.304688v128c0 17.671875-14.328125 32-32 32s-32-14.328125-32-32 14.328125-32 32-32c5.632812.03125 11.15625 1.570312 16 4.449219v-90.203125l-112 28v121.753906c0 17.671875-14.328125 32-32 32s-32-14.328125-32-32 14.328125-32 32-32zm0 0"/><path d="m88 72v-61.726562l-75.535156 69.726562h67.535156c4.417969 0 8-3.582031 8-8zm0 0"/></svg>