<svg height="448pt" viewBox="-32 0 448 448" width="448pt" xmlns="http://www.w3.org/2000/svg"><path d="m384 416h-384v8c0 13.253906 10.746094 24 24 24h336c13.253906 0 24-10.746094 24-24zm0 0"/><path d="m112 264h-40v48h40c4.417969 0 8-3.582031 8-8v-32c0-4.417969-3.582031-8-8-8zm0 0"/><path d="m336 48h36.6875l-36.6875-36.6875zm0 0"/><path d="m384 240h-384v160h384zm-248 64c0 13.253906-10.746094 24-24 24h-40v56c0 4.417969-3.582031 8-8 8s-8-3.582031-8-8v-128c0-4.417969 3.582031-8 8-8h48c13.253906 0 24 10.746094 24 24zm96 80c-.046875.375-.121094.746094-.222656 1.113281-.054688.574219-.167969 1.144531-.34375 1.695313-.203125.460937-.453125.902344-.746094 1.3125-.234375.453125-.523438.878906-.855469 1.269531-.40625.398437-.855469.75-1.335937 1.050781-.289063.257813-.597656.5-.921875.71875-.070313 0-.148438 0-.222657.046875-1.027343.503907-2.152343.777344-3.296874.800781h-.054688c-.9375-.027343-1.863281-.214843-2.734375-.550781-.25-.097656-.472656-.191406-.707031-.304687-.6875-.335938-1.324219-.765625-1.894532-1.28125-.121093-.109375-.257812-.183594-.367187-.296875-.578125-.585938-1.066406-1.257813-1.441406-1.988281l-48.855469-97.699219v94.113281c0 4.417969-3.582031 8-8 8s-8-3.582031-8-8v-128c-.003906-3.714844 2.550781-6.941406 6.164062-7.792969 3.613282-.851562 7.339844.894531 8.996094 4.21875l48.839844 97.6875v-94.113281c0-4.417969 3.582031-8 8-8s8 3.582031 8 8zm96-96c0 4.417969-3.582031 8-8 8s-8-3.582031-8-8v-16c0-4.417969-3.582031-8-8-8h-32c-4.417969 0-8 3.582031-8 8v96c0 4.417969 3.582031 8 8 8h32c4.417969 0 8-3.582031 8-8v-40h-24c-4.417969 0-8-3.582031-8-8s3.582031-8 8-8h32c4.417969 0 8 3.582031 8 8v48c0 13.253906-10.746094 24-24 24h-32c-13.253906 0-24-10.746094-24-24v-96c0-13.253906 10.746094-24 24-24h32c13.253906 0 24 10.746094 24 24zm0 0"/><path d="m384 64h-56c-4.417969 0-8-3.582031-8-8v-56h-296c-13.253906 0-24 10.746094-24 24v200h384zm0 0"/></svg>