<svg height="480pt" viewBox="-31 0 479 480" width="480pt" xmlns="http://www.w3.org/2000/svg"><path d="m344.5 72h64l-64-64zm0 0" fill="#9bc9ff"/><path d="m8.5 248h400v176h-400zm0 0" fill="#9bc9ff"/><g fill="#57a4ff"><path d="m416.429688 72c.023437-2.113281-.792969-4.148438-2.273438-5.65625l-64-64c-1.507812-1.476562-3.542969-2.2929688-5.65625-2.265625v-.078125h-304c-22.082031.0273438-39.972656 17.917969-40 40v400c.027344 22.082031 17.917969 39.972656 40 40h336c22.082031-.027344 39.972656-17.917969 40-40zm-63.929688-44.6875 36.6875 36.6875h-36.6875zm-312-11.3125h296v56c0 4.417969 3.582031 8 8 8h56v160h-384v-200c0-13.253906 10.746094-24 24-24zm360 400h-384v-160h384zm-24 48h-336c-13.253906 0-24-10.746094-24-24v-8h384v8c0 13.253906-10.746094 24-24 24zm0 0"/><path d="m128.5 408c4.417969 0 8-3.582031 8-8v-56h40c13.253906 0 24-10.746094 24-24v-32c0-13.253906-10.746094-24-24-24h-48c-4.417969 0-8 3.582031-8 8v128c0 4.417969 3.582031 8 8 8zm8-128h40c4.417969 0 8 3.582031 8 8v32c0 4.417969-3.582031 8-8 8h-40zm0 0"/><path d="m40.5 408c4.417969 0 8-3.582031 8-8v-56h40c13.253906 0 24-10.746094 24-24v-32c0-13.253906-10.746094-24-24-24h-48c-4.417969 0-8 3.582031-8 8v128c0 4.417969 3.582031 8 8 8zm8-128h40c4.417969 0 8 3.582031 8 8v32c0 4.417969-3.582031 8-8 8h-40zm0 0"/><path d="m224.5 280h24v120c0 4.417969 3.582031 8 8 8s8-3.582031 8-8v-120h24c4.417969 0 8-3.582031 8-8s-3.582031-8-8-8h-64c-4.417969 0-8 3.582031-8 8s3.582031 8 8 8zm0 0"/><path d="m308.925781 407.199219c3.953125 1.976562 8.761719.371093 10.734375-3.582031l24.839844-49.730469 24.800781 49.6875c1.972657 3.957031 6.78125 5.5625 10.734375 3.585937 3.957032-1.976562 5.558594-6.78125 3.585938-10.734375l-30.175782-60.425781 30.253907-60.425781c1.976562-3.953125.371093-8.757813-3.582031-10.734375-3.957032-1.976563-8.761719-.371094-10.738282 3.585937l-24.878906 49.6875-24.800781-49.6875c-1.972657-3.957031-6.78125-5.5625-10.734375-3.585937-3.957032 1.976562-5.558594 6.78125-3.585938 10.734375l30.175782 60.425781-30.214844 60.425781c-.960938 1.902344-1.125 4.109375-.453125 6.132813.675781 2.023437 2.128906 3.695312 4.039062 4.640625zm0 0"/></g></svg>