<svg height="512pt" viewBox="-15 0 512 512" width="512pt" xmlns="http://www.w3.org/2000/svg"><path d="m196.960938 231.335938h44.304687v273.054687h-44.304687zm0 0" fill="#ce7132"/><path d="m196.960938 231.335938h29.035156v273.054687h-29.035156zm0 0" fill="#b75f23"/><path d="m241.265625 51.351562v-38.835937c0-6.910156-5.601563-12.515625-12.515625-12.515625h-19.269531c-6.914063 0-12.519531 5.605469-12.519531 12.515625v38.835937zm0 0" fill="#ce7132"/><path d="m233.632812.988281c-1.5-.636719-3.152343-.988281-4.882812-.988281h-19.269531c-6.914063 0-12.519531 5.605469-12.519531 12.515625v38.835937h29.035156v-38.835937c0-5.179687 3.148437-9.625 7.636718-11.527344zm0 0" fill="#b75f23"/><path d="m473.742188 120.117188v-.003907l-63.039063-63.015625c-5.667969-5.667968-13.207031-8.789062-21.21875-8.789062h-354.097656c-19.542969 0-35.386719 15.84375-35.386719 35.386718v115.300782c0 19.542968 15.84375 35.382812 35.382812 35.382812h354.101563c8.019531 0 15.554687-3.121094 21.222656-8.789062l63.035157-63.015625c5.671874-5.671875 8.796874-13.210938 8.796874-21.230469-.003906-8.019531-3.125-15.558594-8.796874-21.226562zm0 0" fill="#4ef4c0"/><path d="m30.445312 198.996094v-115.300782c0-19.542968 15.84375-35.386718 35.386719-35.386718h-30.445312c-19.542969 0-35.386719 15.84375-35.386719 35.386718v115.300782c0 19.542968 15.84375 35.382812 35.382812 35.382812h30.449219c-19.542969 0-35.386719-15.839844-35.386719-35.382812zm0 0" fill="#1dd1a1"/><path d="m449.214844 135.746094-57.457032-57.441406c-1.484374-1.484376-3.496093-2.316407-5.59375-2.316407h-349.832031c-4.371093 0-7.914062 3.542969-7.914062 7.914063v114.882812c0 4.371094 3.542969 7.914063 7.914062 7.914063h349.828125c2.101563 0 4.113282-.832031 5.597656-2.316407l57.457032-57.441406c3.09375-3.09375 3.09375-8.101562 0-11.195312zm0 0" fill="#1dd1a1"/><path d="m58.863281 198.785156v-114.882812c0-4.371094 3.542969-7.914063 7.914063-7.914063h-30.445313c-4.371093 0-7.914062 3.542969-7.914062 7.914063v114.882812c0 4.371094 3.542969 7.914063 7.914062 7.914063h30.445313c-4.371094 0-7.914063-3.542969-7.914063-7.914063zm0 0" fill="#15ba8b"/><path d="m265.4375 512h-92.644531c-4.203125 0-7.613281-3.40625-7.613281-7.613281 0-4.203125 3.410156-7.609375 7.613281-7.609375h92.644531c4.203125 0 7.609375 3.40625 7.609375 7.609375 0 4.207031-3.40625 7.613281-7.609375 7.613281zm0 0" fill="#b75f23"/><g fill="#e4eaf8"><path d="m96.34375 155.796875c0-9.78125-25.621094-8.085937-25.621094-26.996094 0-12.125 10.589844-16.730469 20.691406-16.730469 4.285157 0 16.085938.804688 16.085938 7.109376 0 2.183593-1.457031 6.628906-5.011719 6.628906-2.910156 0-4.445312-3.070313-11.074219-3.070313-5.738281 0-8.082031 2.34375-8.082031 4.851563 0 8.082031 25.621094 6.546875 25.621094 26.914062 0 11.640625-8.484375 17.945313-20.207031 17.945313-10.585938 0-19.480469-5.175781-19.480469-10.511719 0-2.746094 2.425781-6.789062 5.496094-6.789062 3.800781 0 6.226562 5.980468 13.742187 5.980468 3.71875 0 7.839844-1.453125 7.839844-5.332031zm0 0"/><path d="m143.066406 116.351562c0-2.667968 3.070313-3.800781 6.304688-3.800781 3.070312 0 6.304687 1.132813 6.304687 3.800781v36.695313c0 13.902344-8.972656 19.078125-20.367187 19.078125-11.480469 0-20.367188-5.175781-20.367188-19.078125v-36.695313c0-2.667968 3.070313-3.800781 6.304688-3.800781 3.070312 0 6.304687 1.132813 6.304687 3.800781v36.695313c0 5.496094 2.910157 8.082031 7.757813 8.082031 4.851562 0 7.761718-2.585937 7.761718-8.082031v-36.695313zm0 0"/><path d="m183.402344 123.542969c-4.605469 0-7.273438 2.589843-7.273438 8.085937v21.417969c0 5.496094 2.667969 8.082031 7.355469 8.082031 6.464844 0 6.871094-4.929687 7.113281-8.082031.242188-2.988281 2.988282-3.796875 6.222656-3.796875 4.363282 0 6.386719 1.128906 6.386719 5.980469 0 10.75-8.730469 16.894531-20.289062 16.894531-10.585938 0-19.398438-5.175781-19.398438-19.078125v-21.417969c0-13.902344 8.8125-19.078125 19.398438-19.078125 11.558593 0 20.289062 5.820313 20.289062 16.085938 0 4.851562-2.023437 5.980469-6.304687 5.980469-3.394532 0-6.144532-.886719-6.304688-3.796876-.082031-2.101562-.324218-7.277343-7.195312-7.277343zm0 0"/><path d="m228.832031 123.542969c-4.605469 0-7.273437 2.589843-7.273437 8.085937v21.417969c0 5.496094 2.667968 8.082031 7.355468 8.082031 6.464844 0 6.871094-4.929687 7.113282-8.082031.242187-2.988281 2.988281-3.796875 6.222656-3.796875 4.363281 0 6.386719 1.128906 6.386719 5.980469 0 10.75-8.730469 16.894531-20.289063 16.894531-10.585937 0-19.398437-5.175781-19.398437-19.078125v-21.417969c0-13.902344 8.8125-19.078125 19.398437-19.078125 11.558594 0 20.289063 5.820313 20.289063 16.085938 0 4.851562-2.023438 5.980469-6.304688 5.980469-3.398437 0-6.144531-.886719-6.304687-3.796876-.082032-2.101562-.324219-7.277343-7.195313-7.277343zm0 0"/><path d="m267.632812 137.207031h12.125c2.425782 0 3.800782 2.34375 3.800782 4.929688 0 2.183593-1.132813 4.769531-3.800782 4.769531h-12.125v13.738281h21.664063c2.425781 0 3.796875 2.585938 3.796875 5.578125 0 2.585938-1.128906 5.414063-3.796875 5.414063h-28.777344c-2.746093 0-5.496093-1.292969-5.496093-3.878907v-51.324218c0-2.585938 2.75-3.882813 5.496093-3.882813h28.777344c2.667969 0 3.796875 2.832031 3.796875 5.417969 0 2.988281-1.371094 5.574219-3.796875 5.574219h-21.664063zm0 0"/><path d="m322.84375 155.796875c0-9.78125-25.625-8.085937-25.625-26.996094 0-12.125 10.589844-16.730469 20.691406-16.730469 4.285156 0 16.085938.804688 16.085938 7.109376 0 2.183593-1.453125 6.628906-5.011719 6.628906-2.90625 0-4.445313-3.070313-11.074219-3.070313-5.738281 0-8.082031 2.34375-8.082031 4.851563 0 8.082031 25.625 6.546875 25.625 26.914062 0 11.640625-8.488281 17.945313-20.207031 17.945313-10.589844 0-19.480469-5.175781-19.480469-10.511719 0-2.746094 2.425781-6.789062 5.496094-6.789062 3.796875 0 6.222656 5.980468 13.738281 5.980468 3.722656 0 7.84375-1.453125 7.84375-5.332031zm0 0"/><path d="m365.925781 155.796875c0-9.78125-25.621093-8.085937-25.621093-26.996094 0-12.125 10.589843-16.730469 20.691406-16.730469 4.285156 0 16.085937.804688 16.085937 7.109376 0 2.183593-1.457031 6.628906-5.011719 6.628906-2.910156 0-4.445312-3.070313-11.074218-3.070313-5.738282 0-8.082032 2.34375-8.082032 4.851563 0 8.082031 25.621094 6.546875 25.621094 26.914062 0 11.640625-8.484375 17.945313-20.207031 17.945313-10.585937 0-19.480469-5.175781-19.480469-10.511719 0-2.746094 2.425782-6.789062 5.5-6.789062 3.796875 0 6.222656 5.980468 13.738282 5.980468 3.71875 0 7.839843-1.453125 7.839843-5.332031zm0 0"/></g></svg>