<svg height="448pt" viewBox="-24 0 448 448" width="448pt" xmlns="http://www.w3.org/2000/svg"><path d="m88 72v-61.726562l-75.535156 69.726562h67.535156c4.417969 0 8-3.582031 8-8zm0 0"/><path d="m0 440c0 4.417969 3.582031 8 8 8h336c4.417969 0 8-3.582031 8-8v-112h-264c-13.253906 0-24-10.746094-24-24v-144c0-13.253906 10.746094-24 24-24h264v-128c0-4.417969-3.582031-8-8-8h-240v72c0 13.253906-10.746094 24-24 24h-80zm0 0"/><path d="m400 304v-144c0-4.417969-3.582031-8-8-8h-304c-4.417969 0-8 3.582031-8 8v144c0 4.417969 3.582031 8 8 8h304c4.417969 0 8-3.582031 8-8zm-216-112h-24v88c0 4.417969-3.582031 8-8 8s-8-3.582031-8-8v-88h-24c-4.417969 0-8-3.582031-8-8s3.582031-8 8-8h64c4.417969 0 8 3.582031 8 8s-3.582031 8-8 8zm96 0h-24v88c0 4.417969-3.582031 8-8 8s-8-3.582031-8-8v-88h-24c-4.417969 0-8-3.582031-8-8s3.582031-8 8-8h64c4.417969 0 8 3.582031 8 8s-3.582031 8-8 8zm80 0h-40v32h24c4.417969 0 8 3.582031 8 8s-3.582031 8-8 8h-24v40c0 4.417969-3.582031 8-8 8s-8-3.582031-8-8v-96c0-4.417969 3.582031-8 8-8h48c4.417969 0 8 3.582031 8 8s-3.582031 8-8 8zm0 0"/></svg>