<svg height="448pt" viewBox="-24 0 448 448" width="448pt" xmlns="http://www.w3.org/2000/svg"><path d="m400 304v-144c0-4.417969-3.582031-8-8-8h-304c-4.417969 0-8 3.582031-8 8v144c0 4.417969 3.582031 8 8 8h304c4.417969 0 8-3.582031 8-8zm-224-112h-24v88c0 4.417969-3.582031 8-8 8s-8-3.582031-8-8v-88h-24c-4.417969 0-8-3.582031-8-8s3.582031-8 8-8h64c4.417969 0 8 3.582031 8 8s-3.582031 8-8 8zm102.65625 83.558594c2.453125 3.675781 1.460938 8.644531-2.214844 11.097656-3.675781 2.453125-8.644531 1.460938-11.097656-2.214844l-25.34375-38.042968-25.34375 38.015624c-2.453125 3.679688-7.421875 4.671876-11.097656 2.21875-3.675782-2.453124-4.667969-7.421874-2.214844-11.097656l29.054688-43.535156-29.039063-43.558594c-2.453125-3.675781-1.460937-8.644531 2.214844-11.097656 3.679687-2.453125 8.644531-1.460938 11.097656 2.214844l25.328125 38.042968 25.34375-38.015624c2.453125-3.679688 7.421875-4.671876 11.097656-2.21875 3.675782 2.453124 4.667969 7.421874 2.214844 11.097656l-29.054688 43.535156zm89.34375-83.558594h-24v88c0 4.417969-3.582031 8-8 8s-8-3.582031-8-8v-88h-24c-4.417969 0-8-3.582031-8-8s3.582031-8 8-8h64c4.417969 0 8 3.582031 8 8s-3.582031 8-8 8zm0 0"/><path d="m0 440c0 4.417969 3.582031 8 8 8h336c4.417969 0 8-3.582031 8-8v-112h-264c-13.253906 0-24-10.746094-24-24v-144c0-13.253906 10.746094-24 24-24h264v-128c0-4.417969-3.582031-8-8-8h-240v72c0 13.253906-10.746094 24-24 24h-80zm0 0"/><path d="m88 72v-61.726562l-75.535156 69.726562h67.535156c4.417969 0 8-3.582031 8-8zm0 0"/></svg>