<svg height="448pt" viewBox="-24 0 448 448" width="448pt" xmlns="http://www.w3.org/2000/svg"><path d="m88 72v-61.726562l-75.535156 69.726562h67.535156c4.417969 0 8-3.582031 8-8zm0 0"/><path d="m0 440c0 4.417969 3.582031 8 8 8h336c4.417969 0 8-3.582031 8-8v-112h-264c-13.253906 0-24-10.746094-24-24v-144c0-13.253906 10.746094-24 24-24h264v-128c0-4.417969-3.582031-8-8-8h-240v72c0 13.253906-10.746094 24-24 24h-80zm0 0"/><path d="m400 304v-144c0-4.417969-3.582031-8-8-8h-304c-4.417969 0-8 3.582031-8 8v144c0 4.417969 3.582031 8 8 8h304c4.417969 0 8-3.582031 8-8zm-224-23.335938c-.308594 3.734376-3.167969 6.753907-6.878906 7.265626-.371094.046874-.746094.070312-1.121094.070312-3.335938.003906-6.324219-2.066406-7.496094-5.191406l-16.503906-44.023438-16.503906 44c-1.285156 3.539063-4.871094 5.703125-8.605469 5.195313-3.730469-.511719-6.601563-3.558594-6.890625-7.316407l-8-96c-.367188-4.417968 2.917969-8.296874 7.335938-8.664062 4.417968-.367188 8.296874 2.917969 8.664062 7.335938l5.039062 60.503906 11.488282-30.648438c1.167968-3.128906 4.15625-5.203125 7.496094-5.203125 3.339843 0 6.328124 2.074219 7.496093 5.203125l11.488281 30.648438 4.992188-60.503906c.367188-4.417969 4.246094-7.703126 8.664062-7.335938 4.417969.367188 7.703126 4.246094 7.335938 8.664062zm80-16.664062c0 13.253906-10.746094 24-24 24h-16c-13.253906 0-24-10.746094-24-24v-64c0-13.253906 10.746094-24 24-24h16c13.253906 0 24 10.746094 24 24zm56-72h-32v32h24c4.417969 0 8 3.582031 8 8s-3.582031 8-8 8h-24v40c0 4.417969-3.582031 8-8 8s-8-3.582031-8-8v-96c0-4.417969 3.582031-8 8-8h40c4.417969 0 8 3.582031 8 8s-3.582031 8-8 8zm64 0h-32v32h24c4.417969 0 8 3.582031 8 8s-3.582031 8-8 8h-24v40c0 4.417969-3.582031 8-8 8s-8-3.582031-8-8v-96c0-4.417969 3.582031-8 8-8h40c4.417969 0 8 3.582031 8 8s-3.582031 8-8 8zm0 0"/><path d="m216 192h16c4.417969 0 8 3.582031 8 8v64c0 4.417969-3.582031 8-8 8h-16c-4.417969 0-8-3.582031-8-8v-64c0-4.417969 3.582031-8 8-8zm0 0"/></svg>