<svg height="1064pt" viewBox="-71 0 1064 1064.001" width="1064pt" xmlns="http://www.w3.org/2000/svg"><path d="m17.734375 975.332031c0 39.175781 31.757813 70.933594 70.933594 70.933594h744.800781c39.171875 0 70.933594-31.757813 70.933594-70.933594v-35.464843h-886.667969zm0 0" fill="#bcbec0"/><path d="m762.535156 17.734375h-673.867187c-39.175781 0-70.933594 31.757813-70.933594 70.929687v461.070313h886.667969v-390.132813h-141.867188zm0 0" fill="#bcbec0"/><path d="m762.535156 159.601562h141.867188l-141.867188-141.867187zm0 0" fill="#939598"/><path d="m17.734375 939.867188h886.667969v-390.132813h-886.667969zm673.867187-336.933594 70.933594 141.867187 70.933594-141.867187-70.933594 141.867187 70.933594 141.867188-70.933594-141.867188-70.933594 141.867188 70.933594-141.867188zm-88.667968 141.867187h-70.933594c-19.585938 0-35.464844-15.878906-35.464844-35.46875v-70.933593c0-19.585938 15.878906-35.464844 35.464844-35.464844-19.585938 0-35.464844 15.878906-35.464844 35.464844v70.933593c0 19.589844 15.878906 35.46875 35.464844 35.46875h70.933594c19.589844 0 35.46875 15.878907 35.46875 35.464844v70.933594c0 19.589843-15.878906 35.46875-35.46875 35.46875 19.589844 0 35.46875-15.878907 35.46875-35.46875v-70.933594c0-19.585937-15.878906-35.464844-35.46875-35.464844zm-319.199219-141.867187v283.730468zm-195.066406 0 70.933593 141.867187 70.933594-141.867187-70.933594 141.867187 70.933594 141.867188-70.933594-141.867188-70.933593 141.867188 70.933593-141.867188zm0 0" fill="#ffe477"/><path d="m80.742188 902.628906c8.757812 4.378906 19.410156.828125 23.789062-7.933594.003906-.003906.003906-.007812.007812-.011718l55.0625-110.230469 55.0625 110.140625c4.378907 8.765625 15.03125 12.324219 23.796876 7.945312 8.765624-4.378906 12.324218-15.03125 7.945312-23.796874l-66.980469-133.941407 67.066407-133.941406c4.378906-8.765625.824218-19.417969-7.945313-23.796875-8.761719-4.378906-19.417969-.820312-23.796875 7.945312l-55.152344 110.140626-54.96875-110.140626c-4.378906-8.765624-15.035156-12.324218-23.800781-7.945312s-12.320313 15.035156-7.945313 23.796875l66.890626 133.941406-66.976563 133.941407c-4.421875 8.738281-.917969 19.40625 7.824219 23.824218.039062.019532.078125.039063.121094.0625zm0 0"/><path d="m683.675781 902.628906c8.757813 4.378906 19.410157.828125 23.789063-7.933594.003906-.003906.003906-.007812.007812-.011718l55.0625-110.230469 54.972656 110.140625c4.378907 8.765625 15.035157 12.324219 23.796876 7.945312 8.765624-4.378906 12.324218-15.03125 7.945312-23.796874l-66.886719-133.941407 67.066407-133.9375c4.378906-8.765625.820312-19.421875-7.945313-23.800781-8.765625-4.375-19.417969-.820312-23.796875 7.945312l-55.152344 110.144532-54.972656-110.144532c-4.378906-8.765624-15.03125-12.320312-23.796875-7.945312-8.765625 4.378906-12.324219 15.035156-7.945313 23.800781l66.890626 133.9375-66.980469 133.941407c-4.417969 8.738281-.914063 19.40625 7.824219 23.828124.039062.015626.078124.035157.121093.058594zm0 0"/><path d="m283.734375 904.398438h141.867187c9.792969 0 17.734376-7.9375 17.734376-17.730469 0-9.796875-7.941407-17.734375-17.734376-17.734375h-124.132812v-266c0-9.792969-7.941406-17.734375-17.734375-17.734375s-17.734375 7.941406-17.734375 17.734375v283.734375c0 9.792969 7.941406 17.730469 17.734375 17.730469zm0 0"/><path d="m602.933594 868.933594h-106.398438c-9.792968 0-17.734375 7.9375-17.734375 17.730468 0 9.796876 7.941407 17.734376 17.734375 17.734376h106.398438c29.382812 0 53.199218-23.816407 53.199218-53.199219v-70.933594c0-29.382813-23.816406-53.199219-53.199218-53.199219h-70.933594c-9.792969 0-17.730469-7.9375-17.730469-17.734375v-70.933593c0-9.792969 7.9375-17.730469 17.730469-17.730469h106.402344c9.792968 0 17.730468-7.941407 17.730468-17.734375 0-9.792969-7.9375-17.734375-17.730468-17.734375h-106.402344c-29.378906 0-53.199219 23.820312-53.199219 53.203125v70.933594c0 29.378906 23.820313 53.199218 53.199219 53.199218h70.933594c9.792968 0 17.734375 7.9375 17.734375 17.730469v70.933594c0 9.792969-7.941407 17.734375-17.734375 17.734375zm0 0"/><path d="m921.972656 159.601562c.0625-4.683593-1.753906-9.199218-5.035156-12.539062l-141.867188-141.867188c-3.34375-3.277343-7.855468-5.082031-12.535156-5.019531v-.175781h-673.867187c-48.945313.0585938-88.6093752 39.722656-88.667969 88.667969v886.667969c.0585938 48.941406 39.722656 88.605468 88.667969 88.664062h744.800781c48.945312-.058594 88.605469-39.722656 88.664062-88.664062zm-141.707031-99.058593 81.328125 81.324219h-81.328125zm-691.597656-25.074219h656.132812v124.132812c0 9.792969 7.941407 17.730469 17.734375 17.730469h124.132813v354.667969h-851.199219v-443.332031c0-29.382813 23.816406-53.199219 53.199219-53.199219zm798 886.664062h-851.199219v-354.664062h851.199219zm-53.199219 106.398438h-744.800781c-29.382813 0-53.199219-23.816406-53.199219-53.199219v-17.730469h851.199219v17.730469c0 29.382813-23.820313 53.199219-53.199219 53.199219zm0 0"/></svg>